<mxfile host="app.diagrams.net" agent="Mozilla/5.0 (Windows NT 10.0; Win64; x64) AppleWebKit/537.36 (KHTML, like Gecko) Chrome/132.0.0.0 YaBrowser/25.2.0.0 Safari/537.36" version="26.0.16">
  <diagram name="Страница — 1" id="lZueCfBhe_SpcHqyXkeD">
    <mxGraphModel dx="1035" dy="1723" grid="1" gridSize="10" guides="1" tooltips="1" connect="1" arrows="1" fold="1" page="1" pageScale="1" pageWidth="827" pageHeight="1169" math="0" shadow="0">
      <root>
        <mxCell id="0" />
        <mxCell id="1" parent="0" />
        <mxCell id="cU5vdsv1lLY2K58zrNLY-1" value="Actor" style="shape=umlActor;verticalLabelPosition=bottom;verticalAlign=top;html=1;outlineConnect=0;" parent="1" vertex="1">
          <mxGeometry x="10" y="210" width="30" height="60" as="geometry" />
        </mxCell>
        <mxCell id="cU5vdsv1lLY2K58zrNLY-2" value="Начать игру" style="ellipse;whiteSpace=wrap;html=1;fillColor=#d5e8d4;strokeColor=#82b366;" parent="1" vertex="1">
          <mxGeometry x="360" y="40" width="140" height="80" as="geometry" />
        </mxCell>
        <mxCell id="cU5vdsv1lLY2K58zrNLY-3" value="Посмотреть таблицу рекордов" style="ellipse;whiteSpace=wrap;html=1;fillColor=#fff2cc;strokeColor=#d6b656;" parent="1" vertex="1">
          <mxGeometry x="350" y="200" width="140" height="80" as="geometry" />
        </mxCell>
        <mxCell id="cU5vdsv1lLY2K58zrNLY-4" value="Изменить настройки" style="ellipse;whiteSpace=wrap;html=1;fillColor=#fff2cc;strokeColor=#d6b656;" parent="1" vertex="1">
          <mxGeometry x="350" y="370" width="140" height="80" as="geometry" />
        </mxCell>
        <mxCell id="cU5vdsv1lLY2K58zrNLY-6" value="Войти в главное меню" style="ellipse;whiteSpace=wrap;html=1;fillColor=#d5e8d4;strokeColor=#82b366;" parent="1" vertex="1">
          <mxGeometry x="150" y="200" width="140" height="80" as="geometry" />
        </mxCell>
        <mxCell id="cU5vdsv1lLY2K58zrNLY-8" value="&amp;lt;include&amp;gt;" style="endArrow=openThin;endSize=16;endFill=0;html=1;rounded=0;exitX=0.757;exitY=0.075;exitDx=0;exitDy=0;entryX=0.043;entryY=0.663;entryDx=0;entryDy=0;entryPerimeter=0;exitPerimeter=0;" parent="1" source="cU5vdsv1lLY2K58zrNLY-6" target="cU5vdsv1lLY2K58zrNLY-2" edge="1">
          <mxGeometry y="10" width="160" relative="1" as="geometry">
            <mxPoint x="210" y="130" as="sourcePoint" />
            <mxPoint x="250" y="430" as="targetPoint" />
            <mxPoint as="offset" />
          </mxGeometry>
        </mxCell>
        <mxCell id="cU5vdsv1lLY2K58zrNLY-9" value="&amp;lt;extend&amp;gt;" style="html=1;verticalAlign=bottom;labelBackgroundColor=none;endArrow=open;endFill=0;dashed=1;rounded=0;exitX=0;exitY=0.5;exitDx=0;exitDy=0;entryX=1;entryY=0.5;entryDx=0;entryDy=0;" parent="1" source="cU5vdsv1lLY2K58zrNLY-3" target="cU5vdsv1lLY2K58zrNLY-6" edge="1">
          <mxGeometry width="160" relative="1" as="geometry">
            <mxPoint x="230" y="320" as="sourcePoint" />
            <mxPoint x="250" y="400" as="targetPoint" />
          </mxGeometry>
        </mxCell>
        <mxCell id="cU5vdsv1lLY2K58zrNLY-10" value="&amp;lt;extend&amp;gt;" style="html=1;verticalAlign=bottom;labelBackgroundColor=none;endArrow=open;endFill=0;dashed=1;rounded=0;entryX=0.743;entryY=0.925;entryDx=0;entryDy=0;entryPerimeter=0;exitX=0.043;exitY=0.3;exitDx=0;exitDy=0;exitPerimeter=0;" parent="1" source="cU5vdsv1lLY2K58zrNLY-4" target="cU5vdsv1lLY2K58zrNLY-6" edge="1">
          <mxGeometry width="160" relative="1" as="geometry">
            <mxPoint x="390" y="250" as="sourcePoint" />
            <mxPoint x="300" y="250" as="targetPoint" />
          </mxGeometry>
        </mxCell>
        <mxCell id="cU5vdsv1lLY2K58zrNLY-11" value="Изменить тему" style="ellipse;whiteSpace=wrap;html=1;fillColor=#fff2cc;strokeColor=#d6b656;" parent="1" vertex="1">
          <mxGeometry x="570" y="300" width="140" height="80" as="geometry" />
        </mxCell>
        <mxCell id="cU5vdsv1lLY2K58zrNLY-12" value="Изменить уроыень сложности" style="ellipse;whiteSpace=wrap;html=1;fillColor=#fff2cc;strokeColor=#d6b656;" parent="1" vertex="1">
          <mxGeometry x="570" y="460" width="140" height="80" as="geometry" />
        </mxCell>
        <mxCell id="cU5vdsv1lLY2K58zrNLY-13" value="&amp;lt;extend&amp;gt;" style="html=1;verticalAlign=bottom;labelBackgroundColor=none;endArrow=open;endFill=0;dashed=1;rounded=0;entryX=0.981;entryY=0.376;entryDx=0;entryDy=0;entryPerimeter=0;exitX=0.071;exitY=0.625;exitDx=0;exitDy=0;exitPerimeter=0;" parent="1" source="cU5vdsv1lLY2K58zrNLY-11" target="cU5vdsv1lLY2K58zrNLY-4" edge="1">
          <mxGeometry width="160" relative="1" as="geometry">
            <mxPoint x="346" y="404" as="sourcePoint" />
            <mxPoint x="264" y="284" as="targetPoint" />
          </mxGeometry>
        </mxCell>
        <mxCell id="cU5vdsv1lLY2K58zrNLY-14" value="&amp;lt;extend&amp;gt;" style="html=1;verticalAlign=bottom;labelBackgroundColor=none;endArrow=open;endFill=0;dashed=1;rounded=0;exitX=0.006;exitY=0.318;exitDx=0;exitDy=0;exitPerimeter=0;" parent="1" source="cU5vdsv1lLY2K58zrNLY-12" target="cU5vdsv1lLY2K58zrNLY-4" edge="1">
          <mxGeometry width="160" relative="1" as="geometry">
            <mxPoint x="580" y="370" as="sourcePoint" />
            <mxPoint x="477" y="410" as="targetPoint" />
          </mxGeometry>
        </mxCell>
        <mxCell id="cU5vdsv1lLY2K58zrNLY-15" value="" style="rounded=1;whiteSpace=wrap;html=1;absoluteArcSize=1;arcSize=14;strokeWidth=2;fillColor=none;" parent="1" vertex="1">
          <mxGeometry x="350" y="20" width="160" height="120" as="geometry" />
        </mxCell>
        <mxCell id="cU5vdsv1lLY2K58zrNLY-19" value="" style="rounded=1;whiteSpace=wrap;html=1;absoluteArcSize=1;arcSize=14;strokeWidth=2;fillColor=none;" parent="1" vertex="1">
          <mxGeometry x="10" y="-820" width="1340" height="710" as="geometry" />
        </mxCell>
        <mxCell id="cU5vdsv1lLY2K58zrNLY-21" value="Управлять змейкой" style="ellipse;whiteSpace=wrap;html=1;fillColor=#d5e8d4;strokeColor=#82b366;" parent="1" vertex="1">
          <mxGeometry x="200" y="-540" width="140" height="80" as="geometry" />
        </mxCell>
        <mxCell id="cU5vdsv1lLY2K58zrNLY-22" value="&amp;lt;include&amp;gt;" style="endArrow=openThin;endSize=16;endFill=0;html=1;rounded=0;entryX=0;entryY=0.5;entryDx=0;entryDy=0;" parent="1" source="cU5vdsv1lLY2K58zrNLY-1" target="cU5vdsv1lLY2K58zrNLY-6" edge="1">
          <mxGeometry y="10" width="160" relative="1" as="geometry">
            <mxPoint x="266" y="216" as="sourcePoint" />
            <mxPoint x="376" y="103" as="targetPoint" />
            <mxPoint as="offset" />
          </mxGeometry>
        </mxCell>
        <mxCell id="cU5vdsv1lLY2K58zrNLY-24" value="Поглотить еду" style="ellipse;whiteSpace=wrap;html=1;fillColor=#d5e8d4;strokeColor=#82b366;" parent="1" vertex="1">
          <mxGeometry x="290" y="-270" width="140" height="80" as="geometry" />
        </mxCell>
        <mxCell id="cU5vdsv1lLY2K58zrNLY-25" value="Встретиться с границей" style="ellipse;whiteSpace=wrap;html=1;fillColor=#f8cecc;strokeColor=#b85450;" parent="1" vertex="1">
          <mxGeometry x="670" y="-450" width="140" height="80" as="geometry" />
        </mxCell>
        <mxCell id="cU5vdsv1lLY2K58zrNLY-26" value="Встретиться с препятствием" style="ellipse;whiteSpace=wrap;html=1;fillColor=#f8cecc;strokeColor=#b85450;" parent="1" vertex="1">
          <mxGeometry x="670" y="-360" width="140" height="80" as="geometry" />
        </mxCell>
        <mxCell id="cU5vdsv1lLY2K58zrNLY-27" value="Увеличиться в размерах" style="ellipse;whiteSpace=wrap;html=1;fillColor=#d5e8d4;strokeColor=#82b366;" parent="1" vertex="1">
          <mxGeometry x="480" y="-270" width="140" height="80" as="geometry" />
        </mxCell>
        <mxCell id="cU5vdsv1lLY2K58zrNLY-30" value="Actor" style="shape=umlActor;verticalLabelPosition=bottom;verticalAlign=top;html=1;outlineConnect=0;" parent="1" vertex="1">
          <mxGeometry x="40" y="-530" width="30" height="60" as="geometry" />
        </mxCell>
        <mxCell id="cU5vdsv1lLY2K58zrNLY-31" value="&amp;lt;include&amp;gt;" style="endArrow=openThin;endSize=16;endFill=0;html=1;rounded=0;entryX=0;entryY=0.5;entryDx=0;entryDy=0;" parent="1" source="cU5vdsv1lLY2K58zrNLY-30" target="cU5vdsv1lLY2K58zrNLY-21" edge="1">
          <mxGeometry y="10" width="160" relative="1" as="geometry">
            <mxPoint x="340" y="-460" as="sourcePoint" />
            <mxPoint x="460" y="-540" as="targetPoint" />
            <mxPoint as="offset" />
          </mxGeometry>
        </mxCell>
        <mxCell id="cU5vdsv1lLY2K58zrNLY-32" value="Встретиться с собой" style="ellipse;whiteSpace=wrap;html=1;fillColor=#f8cecc;strokeColor=#b85450;" parent="1" vertex="1">
          <mxGeometry x="680" y="-530" width="140" height="80" as="geometry" />
        </mxCell>
        <mxCell id="cU5vdsv1lLY2K58zrNLY-34" value="&amp;lt;extend&amp;gt;" style="html=1;verticalAlign=bottom;labelBackgroundColor=none;endArrow=open;endFill=0;dashed=1;rounded=0;entryX=0.588;entryY=1.004;entryDx=0;entryDy=0;entryPerimeter=0;exitX=0;exitY=0.5;exitDx=0;exitDy=0;" parent="1" source="cU5vdsv1lLY2K58zrNLY-24" target="cU5vdsv1lLY2K58zrNLY-21" edge="1">
          <mxGeometry width="160" relative="1" as="geometry">
            <mxPoint x="653" y="-660" as="sourcePoint" />
            <mxPoint x="550" y="-620" as="targetPoint" />
          </mxGeometry>
        </mxCell>
        <mxCell id="cU5vdsv1lLY2K58zrNLY-35" value="&amp;lt;extend&amp;gt;" style="html=1;verticalAlign=bottom;labelBackgroundColor=none;endArrow=open;endFill=0;dashed=1;rounded=0;entryX=0.981;entryY=0.654;entryDx=0;entryDy=0;entryPerimeter=0;exitX=-0.009;exitY=0.386;exitDx=0;exitDy=0;exitPerimeter=0;" parent="1" source="cU5vdsv1lLY2K58zrNLY-32" target="cU5vdsv1lLY2K58zrNLY-21" edge="1">
          <mxGeometry width="160" relative="1" as="geometry">
            <mxPoint x="690" y="-660" as="sourcePoint" />
            <mxPoint x="537" y="-531" as="targetPoint" />
          </mxGeometry>
        </mxCell>
        <mxCell id="cU5vdsv1lLY2K58zrNLY-36" value="&amp;lt;extend&amp;gt;" style="html=1;verticalAlign=bottom;labelBackgroundColor=none;endArrow=open;endFill=0;dashed=1;rounded=0;entryX=1;entryY=1;entryDx=0;entryDy=0;exitX=0.011;exitY=0.368;exitDx=0;exitDy=0;exitPerimeter=0;" parent="1" source="cU5vdsv1lLY2K58zrNLY-25" target="cU5vdsv1lLY2K58zrNLY-21" edge="1">
          <mxGeometry width="160" relative="1" as="geometry">
            <mxPoint x="689" y="-509" as="sourcePoint" />
            <mxPoint x="572" y="-509" as="targetPoint" />
          </mxGeometry>
        </mxCell>
        <mxCell id="cU5vdsv1lLY2K58zrNLY-37" value="&amp;lt;extend&amp;gt;" style="html=1;verticalAlign=bottom;labelBackgroundColor=none;endArrow=open;endFill=0;dashed=1;rounded=0;entryX=0.634;entryY=0.993;entryDx=0;entryDy=0;exitX=0.062;exitY=0.243;exitDx=0;exitDy=0;exitPerimeter=0;entryPerimeter=0;" parent="1" source="cU5vdsv1lLY2K58zrNLY-26" target="cU5vdsv1lLY2K58zrNLY-21" edge="1">
          <mxGeometry width="160" relative="1" as="geometry">
            <mxPoint x="692" y="-371" as="sourcePoint" />
            <mxPoint x="559" y="-462" as="targetPoint" />
          </mxGeometry>
        </mxCell>
        <mxCell id="cU5vdsv1lLY2K58zrNLY-38" value="Выйти из игры" style="ellipse;whiteSpace=wrap;html=1;fillColor=#f8cecc;strokeColor=#b85450;" parent="1" vertex="1">
          <mxGeometry x="1171" y="-740" width="140" height="80" as="geometry" />
        </mxCell>
        <mxCell id="cU5vdsv1lLY2K58zrNLY-39" value="&amp;lt;extend&amp;gt;" style="html=1;verticalAlign=bottom;labelBackgroundColor=none;endArrow=open;endFill=0;dashed=1;rounded=0;exitX=0;exitY=0.5;exitDx=0;exitDy=0;entryX=1;entryY=0.5;entryDx=0;entryDy=0;" parent="1" source="cU5vdsv1lLY2K58zrNLY-38" target="cU5vdsv1lLY2K58zrNLY-48" edge="1">
          <mxGeometry width="160" relative="1" as="geometry">
            <mxPoint x="700" y="-660" as="sourcePoint" />
            <mxPoint x="950" y="-550" as="targetPoint" />
          </mxGeometry>
        </mxCell>
        <mxCell id="cU5vdsv1lLY2K58zrNLY-40" value="Game over" style="ellipse;whiteSpace=wrap;html=1;fillColor=#f8cecc;strokeColor=#b85450;" parent="1" vertex="1">
          <mxGeometry x="990" y="-460" width="140" height="80" as="geometry" />
        </mxCell>
        <mxCell id="cU5vdsv1lLY2K58zrNLY-41" value="&amp;lt;include&amp;gt;" style="endArrow=openThin;endSize=16;endFill=0;html=1;rounded=0;exitX=1;exitY=0.5;exitDx=0;exitDy=0;" parent="1" source="cU5vdsv1lLY2K58zrNLY-32" target="cU5vdsv1lLY2K58zrNLY-40" edge="1">
          <mxGeometry y="10" width="160" relative="1" as="geometry">
            <mxPoint x="830" y="-471.43" as="sourcePoint" />
            <mxPoint x="960" y="-471.43" as="targetPoint" />
            <mxPoint as="offset" />
          </mxGeometry>
        </mxCell>
        <mxCell id="cU5vdsv1lLY2K58zrNLY-42" value="&amp;lt;include&amp;gt;" style="endArrow=openThin;endSize=16;endFill=0;html=1;rounded=0;exitX=1;exitY=0.5;exitDx=0;exitDy=0;entryX=0.021;entryY=0.707;entryDx=0;entryDy=0;entryPerimeter=0;" parent="1" source="cU5vdsv1lLY2K58zrNLY-25" target="cU5vdsv1lLY2K58zrNLY-40" edge="1">
          <mxGeometry y="10" width="160" relative="1" as="geometry">
            <mxPoint x="840" y="-410" as="sourcePoint" />
            <mxPoint x="995" y="-375" as="targetPoint" />
            <mxPoint as="offset" />
          </mxGeometry>
        </mxCell>
        <mxCell id="cU5vdsv1lLY2K58zrNLY-43" value="&amp;lt;include&amp;gt;" style="endArrow=openThin;endSize=16;endFill=0;html=1;rounded=0;exitX=1;exitY=0.5;exitDx=0;exitDy=0;entryX=0.226;entryY=0.939;entryDx=0;entryDy=0;entryPerimeter=0;" parent="1" source="cU5vdsv1lLY2K58zrNLY-26" target="cU5vdsv1lLY2K58zrNLY-40" edge="1">
          <mxGeometry y="10" width="160" relative="1" as="geometry">
            <mxPoint x="837" y="-310" as="sourcePoint" />
            <mxPoint x="993" y="-343" as="targetPoint" />
            <mxPoint as="offset" />
          </mxGeometry>
        </mxCell>
        <mxCell id="cU5vdsv1lLY2K58zrNLY-44" value="Играть заново" style="ellipse;whiteSpace=wrap;html=1;fillColor=#fff2cc;strokeColor=#d6b656;" parent="1" vertex="1">
          <mxGeometry x="1171" y="-280" width="140" height="80" as="geometry" />
        </mxCell>
        <mxCell id="cU5vdsv1lLY2K58zrNLY-45" value="&amp;lt;extend&amp;gt;" style="html=1;verticalAlign=bottom;labelBackgroundColor=none;endArrow=open;endFill=0;dashed=1;rounded=0;entryX=0.746;entryY=0.064;entryDx=0;entryDy=0;entryPerimeter=0;exitX=0.368;exitY=1.011;exitDx=0;exitDy=0;exitPerimeter=0;" parent="1" source="cU5vdsv1lLY2K58zrNLY-38" target="cU5vdsv1lLY2K58zrNLY-40" edge="1">
          <mxGeometry width="160" relative="1" as="geometry">
            <mxPoint x="1213" y="-530" as="sourcePoint" />
            <mxPoint x="1050" y="-401" as="targetPoint" />
          </mxGeometry>
        </mxCell>
        <mxCell id="cU5vdsv1lLY2K58zrNLY-46" value="&amp;lt;extend&amp;gt;" style="html=1;verticalAlign=bottom;labelBackgroundColor=none;endArrow=open;endFill=0;dashed=1;rounded=0;entryX=1;entryY=1;entryDx=0;entryDy=0;" parent="1" source="cU5vdsv1lLY2K58zrNLY-44" target="cU5vdsv1lLY2K58zrNLY-40" edge="1">
          <mxGeometry width="160" relative="1" as="geometry">
            <mxPoint x="1252" y="-519" as="sourcePoint" />
            <mxPoint x="1094" y="-395" as="targetPoint" />
          </mxGeometry>
        </mxCell>
        <mxCell id="cU5vdsv1lLY2K58zrNLY-48" value="Выйти в меню паузы" style="ellipse;whiteSpace=wrap;html=1;fillColor=#fff2cc;strokeColor=#d6b656;" parent="1" vertex="1">
          <mxGeometry x="660" y="-710" width="140" height="80" as="geometry" />
        </mxCell>
        <mxCell id="cU5vdsv1lLY2K58zrNLY-49" value="Продолжить игру" style="ellipse;whiteSpace=wrap;html=1;fillColor=#d5e8d4;strokeColor=#82b366;" parent="1" vertex="1">
          <mxGeometry x="980" y="-664" width="140" height="80" as="geometry" />
        </mxCell>
        <mxCell id="cU5vdsv1lLY2K58zrNLY-50" value="&amp;lt;extend&amp;gt;" style="html=1;verticalAlign=bottom;labelBackgroundColor=none;endArrow=open;endFill=0;dashed=1;rounded=0;entryX=0.912;entryY=0.727;entryDx=0;entryDy=0;entryPerimeter=0;" parent="1" source="cU5vdsv1lLY2K58zrNLY-49" target="cU5vdsv1lLY2K58zrNLY-48" edge="1">
          <mxGeometry width="160" relative="1" as="geometry">
            <mxPoint x="1160" y="-640" as="sourcePoint" />
            <mxPoint x="850" y="-550" as="targetPoint" />
          </mxGeometry>
        </mxCell>
        <mxCell id="cU5vdsv1lLY2K58zrNLY-52" value="&amp;lt;extend&amp;gt;" style="html=1;verticalAlign=bottom;labelBackgroundColor=none;endArrow=open;endFill=0;dashed=1;rounded=0;exitX=0;exitY=0.5;exitDx=0;exitDy=0;" parent="1" source="cU5vdsv1lLY2K58zrNLY-48" target="cU5vdsv1lLY2K58zrNLY-21" edge="1">
          <mxGeometry width="160" relative="1" as="geometry">
            <mxPoint x="700" y="-660" as="sourcePoint" />
            <mxPoint x="537" y="-531" as="targetPoint" />
          </mxGeometry>
        </mxCell>
        <mxCell id="cU5vdsv1lLY2K58zrNLY-53" value="&amp;lt;include&amp;gt;" style="endArrow=openThin;endSize=16;endFill=0;html=1;rounded=0;entryX=0.071;entryY=0.738;entryDx=0;entryDy=0;entryPerimeter=0;" parent="1" source="cU5vdsv1lLY2K58zrNLY-27" target="cU5vdsv1lLY2K58zrNLY-26" edge="1">
          <mxGeometry y="10" width="160" relative="1" as="geometry">
            <mxPoint x="840" y="-410" as="sourcePoint" />
            <mxPoint x="1060" y="-360" as="targetPoint" />
            <mxPoint as="offset" />
          </mxGeometry>
        </mxCell>
        <mxCell id="cU5vdsv1lLY2K58zrNLY-54" value="&amp;lt;include&amp;gt;" style="endArrow=openThin;endSize=16;endFill=0;html=1;rounded=0;entryX=0;entryY=0.5;entryDx=0;entryDy=0;" parent="1" source="cU5vdsv1lLY2K58zrNLY-24" target="cU5vdsv1lLY2K58zrNLY-27" edge="1">
          <mxGeometry y="10" width="160" relative="1" as="geometry">
            <mxPoint x="993" y="-621" as="sourcePoint" />
            <mxPoint x="1069" y="-398" as="targetPoint" />
            <mxPoint as="offset" />
          </mxGeometry>
        </mxCell>
        <mxCell id="cU5vdsv1lLY2K58zrNLY-55" value="" style="endArrow=none;html=1;rounded=0;exitX=0.75;exitY=0;exitDx=0;exitDy=0;entryX=0.25;entryY=1;entryDx=0;entryDy=0;" parent="1" source="cU5vdsv1lLY2K58zrNLY-15" target="cU5vdsv1lLY2K58zrNLY-19" edge="1">
          <mxGeometry width="50" height="50" relative="1" as="geometry">
            <mxPoint x="720" y="-50" as="sourcePoint" />
            <mxPoint x="770" y="-100" as="targetPoint" />
          </mxGeometry>
        </mxCell>
        <mxCell id="rUjQFCz1Dk32J5faEs26-2" value="&amp;lt;include&amp;gt;" style="endArrow=openThin;endSize=16;endFill=0;html=1;rounded=0;entryX=0.093;entryY=0.775;entryDx=0;entryDy=0;entryPerimeter=0;exitX=0.621;exitY=0.05;exitDx=0;exitDy=0;exitPerimeter=0;" parent="1" source="cU5vdsv1lLY2K58zrNLY-27" target="cU5vdsv1lLY2K58zrNLY-25" edge="1">
          <mxGeometry y="10" width="160" relative="1" as="geometry">
            <mxPoint x="611" y="-248" as="sourcePoint" />
            <mxPoint x="690" y="-291" as="targetPoint" />
            <mxPoint as="offset" />
          </mxGeometry>
        </mxCell>
        <mxCell id="rUjQFCz1Dk32J5faEs26-3" value="&amp;lt;include&amp;gt;" style="endArrow=openThin;endSize=16;endFill=0;html=1;rounded=0;entryX=0.043;entryY=0.625;entryDx=0;entryDy=0;entryPerimeter=0;exitX=0.371;exitY=0.038;exitDx=0;exitDy=0;exitPerimeter=0;" parent="1" source="cU5vdsv1lLY2K58zrNLY-27" target="cU5vdsv1lLY2K58zrNLY-32" edge="1">
          <mxGeometry y="10" width="160" relative="1" as="geometry">
            <mxPoint x="577" y="-256" as="sourcePoint" />
            <mxPoint x="693" y="-378" as="targetPoint" />
            <mxPoint as="offset" />
          </mxGeometry>
        </mxCell>
      </root>
    </mxGraphModel>
  </diagram>
</mxfile>
